<?xml version="1.0" encoding="UTF-8"?>
<svg xmlns="http://www.w3.org/2000/svg" viewBox="0 0 1286 1045" width="100%">
<g transform="translate(0.000000,1045.000000) scale(0.100000,-0.100000)" fill="#0e1116" stroke="none">
<path d="M6415 10440 c-27 -5 -93 -9 -145 -9 -52 -1 -133 -5 -180 -10 -47 -5&#xA;-139 -15 -205 -21 -265 -25 -832 -120 -1045 -175 -52 -13 -115 -29 -140 -35&#xA;-201 -50 -619 -176 -695 -209 -11 -4 -45 -17 -75 -29 -113 -41 -326 -124 -365&#xA;-142 -22 -9 -65 -28 -95 -40 -30 -13 -59 -27 -64 -32 -6 -4 -18 -8 -28 -8 -10&#xA;0 -18 -4 -18 -10 0 -5 -5 -10 -10 -10 -11 0 -302 -140 -310 -149 -3 -4 -36&#xA;-22 -75 -41 -38 -19 -89 -47 -111 -62 -23 -16 -45 -28 -48 -28 -9 0 -167 -90&#xA;-186 -106 -8 -6 -37 -24 -64 -39 -27 -15 -105 -65 -173 -111 -68 -46 -128 -84&#xA;-133 -84 -6 0 -10 -4 -10 -9 0 -4 -24 -24 -52 -44 -75 -51 -247 -183 -283&#xA;-216 -16 -16 -37 -32 -47 -37 -9 -5 -36 -27 -60 -49 -23 -22 -79 -72 -122&#xA;-110 -92 -82 -291 -278 -391 -386 -71 -76 -78 -84 -175 -199 -30 -36 -57 -67&#xA;-61 -70 -10 -10 -184 -245 -203 -275 -10 -16 -22 -32 -25 -35 -4 -3 -18 -23&#xA;-31 -45 -13 -22 -27 -42 -30 -45 -3 -3 -31 -45 -61 -95 -49 -78 -77 -127 -149&#xA;-257 -52 -92 -132 -253 -154 -308 -15 -36 -33 -77 -41 -91 -17 -31 -67 -165&#xA;-101 -269 -14 -41 -29 -84 -34 -95 -22 -44 -90 -296 -83 -308 3 -4 0 -13 -5&#xA;-20 -6 -7 -18 -46 -27 -87 -57 -258 -88 -514 -102 -850 -8 -190 21 -530 64&#xA;-755 13 -71 28 -150 32 -175 9 -53 40 -177 52 -205 9 -22 18 -54 24 -82 15&#xA;-73 115 -350 172 -478 117 -263 154 -335 166 -328 6 3 7 1 3 -5 -17 -27 360&#xA;-625 455 -722 14 -14 36 -42 50 -61 13 -20 49 -64 79 -99 30 -34 71 -81 90&#xA;-103 148 -172 477 -484 690 -655 233 -186 299 -233 495 -361 243 -158 264&#xA;-171 269 -171 2 0 58 -30 123 -67 65 -38 152 -84 193 -103 41 -19 77 -38 80&#xA;-42 3 -3 59 -32 125 -63 66 -31 138 -65 161 -76 22 -10 43 -19 47 -19 4 0 35&#xA;-13 70 -29 67 -31 78 -36 272 -109 203 -77 301 -112 316 -112 8 0 59 -16 114&#xA;-35 55 -19 101 -35 102 -35 2 0 8 -2 15 -4 76 -22 143 -40 188 -51 30 -7 82&#xA;-20 115 -30 33 -9 80 -20 105 -25 25 -5 88 -18 140 -30 52 -11 124 -24 160&#xA;-30 36 -5 99 -15 140 -24 264 -51 686 -90 1115 -101 330 -9 848 27 1225 85&#xA;144 22 302 50 370 65 41 9 107 22 145 31 161 33 287 64 409 100 44 13 84 24&#xA;90 24 15 0 146 40 183 56 17 8 36 14 41 14 14 0 307 100 402 138 158 62 237&#xA;94 288 118 29 13 55 24 58 24 15 0 286 134 499 248 44 23 94 49 110 58 17 8&#xA;55 30 85 49 30 19 62 37 70 41 8 4 51 30 95 58 44 28 88 56 97 61 64 40 200&#xA;133 235 161 23 19 44 34 48 34 10 0 279 204 355 269 36 31 78 67 94 81 78 66&#xA;419 403 537 531 137 147 370 448 419 540 7 13 19 29 25 34 20 17 147 218 168&#xA;265 11 25 23 47 28 50 4 3 13 17 19 30 6 14 26 52 44 85 61 110 127 249 211&#xA;450 52 123 164 493 167 550 1 17 5 35 9 40 4 6 12 33 17 60 6 28 17 84 25 125&#xA;15 74 17 91 36 240 22 168 34 402 27 531 -14 295 -35 494 -70 659 -8 36 -22&#xA;101 -30 145 -9 44 -23 103 -31 130 -8 28 -20 72 -25 98 -6 27 -17 65 -25 84&#xA;-8 20 -15 48 -15 64 0 15 -4 31 -10 34 -5 3 -10 17 -10 31 0 13 -9 41 -20 61&#xA;-11 21 -20 48 -20 60 0 13 -4 31 -9 41 -20 39 -43 98 -47 118 -4 21 -95 247&#xA;-113 281 -5 10 -39 80 -76 156 -36 75 -70 137 -75 137 -6 0 -10 8 -10 18 0 9&#xA;-20 52 -45 96 -25 43 -45 80 -45 82 0 3 -15 26 -33 53 -17 26 -52 80 -77 120&#xA;-25 40 -73 112 -107 159 -34 48 -72 102 -85 120 -117 166 -326 410 -518 603&#xA;-273 274 -514 478 -779 659 -28 19 -61 43 -72 53 -12 9 -28 17 -35 17 -7 0&#xA;-14 4 -16 8 -7 19 -448 292 -471 292 -2 0 -56 29 -120 64 -65 36 -127 68 -140&#xA;72 -12 3 -42 17 -67 30 -108 57 -531 234 -559 234 -11 0 -60 18 -136 51 -11 4&#xA;-51 18 -90 29 -38 12 -106 33 -150 47 -44 14 -96 29 -115 33 -19 4 -61 15 -93&#xA;24 -32 9 -71 16 -87 16 -15 0 -30 5 -32 10 -2 6 -28 13 -58 17 -30 3 -59 9&#xA;-65 13 -5 4 -26 11 -45 14 -19 4 -53 11 -75 16 -184 41 -661 105 -900 120 -88&#xA;6 -221 15 -295 20 -155 11 -471 11 -545 0z m785 -215 c19 -3 109 -12 200 -20&#xA;243 -23 273 -26 290 -30 8 -3 47 -9 85 -15 61 -9 131 -21 280 -50 145 -28 345&#xA;-72 430 -95 55 -15 129 -35 165 -45 36 -10 76 -22 90 -28 14 -6 90 -31 170&#xA;-57 80 -25 159 -52 175 -60 17 -7 73 -29 125 -48 52 -20 118 -47 145 -60 28&#xA;-13 61 -28 75 -32 33 -10 467 -223 499 -245 15 -10 71 -44 126 -76 84 -49 147&#xA;-87 235 -144 15 -9 97 -66 182 -125 60 -41 197 -144 234 -174 17 -14 51 -42&#xA;75 -61 124 -99 265 -226 402 -363 192 -192 246 -251 349 -378 15 -19 44 -54&#xA;64 -79 57 -70 146 -188 196 -260 112 -162 128 -185 128 -191 0 -4 16 -31 36&#xA;-60 20 -30 51 -84 70 -122 19 -37 49 -91 68 -120 31 -49 75 -138 144 -287 42&#xA;-91 142 -344 142 -358 0 -7 4 -20 9 -30 19 -37 49 -120 61 -167 7 -27 19 -72&#xA;27 -100 8 -27 23 -84 33 -125 10 -41 25 -102 34 -135 9 -32 16 -71 16 -85 0&#xA;-14 4 -30 9 -35 4 -6 14 -46 20 -90 7 -44 17 -102 22 -130 34 -190 46 -776 20&#xA;-995 -32 -267 -111 -599 -206 -870 -20 -58 -47 -133 -59 -168 -12 -34 -24 -60&#xA;-27 -58 -3 3 -14 -20 -24 -52 -10 -31 -24 -64 -30 -72 -28 -38 -85 -162 -79&#xA;-173 4 -7 4 -9 -1 -5 -4 4 -17 -9 -28 -30 -59 -112 -149 -266 -167 -287 -10&#xA;-11 -19 -24 -21 -30 -5 -13 -150 -228 -158 -235 -4 -3 -53 -65 -111 -139 -220&#xA;-283 -482 -551 -808 -827 -52 -44 -104 -86 -116 -94 -12 -8 -63 -47 -112 -86&#xA;-107 -86 -190 -144 -204 -144 -5 0 -10 -4 -10 -9 0 -5 -18 -20 -39 -33 -22&#xA;-13 -65 -40 -95 -60 -162 -109 -353 -222 -526 -310 -74 -38 -139 -73 -145 -78&#xA;-6 -5 -47 -24 -90 -43 -44 -19 -127 -57 -185 -85 -124 -59 -201 -91 -330 -138&#xA;-52 -19 -120 -46 -150 -59 -30 -13 -100 -38 -155 -55 -55 -17 -109 -35 -120&#xA;-40 -34 -14 -88 -32 -125 -40 -19 -4 -75 -20 -125 -34 -128 -37 -150 -43 -247&#xA;-66 -49 -11 -125 -29 -170 -39 -344 -81 -818 -147 -1223 -171 -416 -25 -1172&#xA;6 -1450 59 -27 6 -84 15 -125 21 -168 26 -405 74 -575 117 -99 25 -198 49&#xA;-220 54 -22 4 -141 42 -265 84 -124 42 -247 83 -274 90 -26 8 -53 18 -60 23&#xA;-6 5 -36 17 -66 27 -30 10 -80 30 -111 45 -31 15 -73 33 -95 40 -21 7 -94 39&#xA;-162 72 -68 32 -127 58 -132 58 -4 0 -10 3 -12 8 -1 4 -79 45 -173 92 -93 46&#xA;-172 87 -175 91 -3 3 -32 21 -65 39 -33 18 -62 36 -65 40 -3 4 -10 9 -15 11&#xA;-6 2 -53 30 -105 62 -125 76 -131 80 -149 95 -9 7 -65 48 -126 90 -105 72&#xA;-337 248 -400 302 -213 183 -422 384 -564 545 -107 121 -102 114 -198 236 -37&#xA;47 -81 103 -98 124 -16 21 -37 48 -45 61 -8 12 -41 60 -74 106 -32 45 -61 90&#xA;-64 98 -3 8 -17 31 -32 50 -15 19 -44 67 -65 105 -70 127 -77 140 -96 167 -11&#xA;14 -19 29 -19 33 0 6 -78 174 -116 248 -8 16 -33 77 -55 135 -22 59 -47 121&#xA;-53 137 -7 17 -28 77 -46 135 -18 58 -39 119 -46 137 -8 17 -14 38 -14 46 0 7&#xA;-11 59 -24 113 -14 54 -29 126 -35 159 -6 33 -15 87 -21 120 -28 146 -33 221&#xA;-37 555 -5 381 4 554 39 750 11 63 23 135 27 160 4 25 10 50 14 57 4 6 11 31&#xA;16 55 5 24 19 77 30 118 12 41 26 98 32 125 6 28 15 55 19 60 11 16 40 112 40&#xA;134 0 11 4 22 9 25 5 3 25 48 46 98 54 137 199 447 213 458 4 3 25 39 46 80&#xA;44 84 143 248 219 360 48 71 164 229 176 240 4 3 25 30 47 60 23 30 52 66 65&#xA;80 13 14 59 66 101 115 98 114 272 294 363 375 39 35 93 84 120 109 55 52 250&#xA;214 295 246 15 11 70 52 122 90 51 39 125 92 163 118 39 26 81 56 95 67 14 11&#xA;29 20 33 20 4 0 47 26 95 58 121 79 124 81 152 93 13 5 27 14 30 18 3 4 19 14&#xA;35 23 17 8 93 50 170 92 77 42 145 76 152 76 6 0 13 3 15 8 1 4 28 19 58 34&#xA;106 51 292 138 296 138 5 0 71 29 154 68 30 14 58 25 62 24 7 -2 134 46 196&#xA;73 18 8 37 15 42 15 6 0 29 8 53 18 60 26 162 61 228 77 31 8 83 23 115 34 33&#xA;10 86 27 119 36 33 9 96 28 140 41 44 13 105 28 135 34 30 5 93 19 140 30 47&#xA;11 101 23 120 26 19 3 62 12 95 21 32 8 113 23 180 33 66 10 161 25 210 33 50&#xA;9 135 20 190 27 55 6 129 15 165 20 55 8 300 23 540 34 90 4 717 -4 760 -9z"></path>
<path d="M3300 7232 c-41 -1 -84 -4 -96 -7 -11 -2 -44 -35 -74 -72 -52 -65&#xA;-149 -182 -160 -193 -25 -25 -90 -111 -90 -118 0 -6 -3 -12 -8 -14 -4 -1 -48&#xA;-52 -97 -112 -50 -61 -124 -151 -166 -200 -41 -50 -144 -176 -228 -281 -84&#xA;-104 -170 -209 -190 -231 -41 -48 -47 -54 -121 -149 -30 -39 -89 -110 -130&#xA;-158 -41 -49 -82 -100 -91 -113 -9 -14 -32 -44 -52 -67 -78 -92 -181 -218&#xA;-329 -400 -56 -71 -119 -147 -138 -171 -19 -23 -59 -73 -88 -109 l-54 -67&#xA;-113 0 -113 0 -6 -27 c-13 -69 -31 -969 -19 -976 5 -4 76 -8 156 -11 112 -4&#xA;147 -3 147 7 0 6 3 50 6 97 3 47 9 184 12 305 l7 220 170 -1 c464 -3 1738 -15&#xA;2020 -19 176 -3 709 -7 1185 -10 476 -3 998 -8 1160 -11 263 -4 971 -11 3040&#xA;-29 349 -3 824 -8 1055 -10 231 -3 706 -8 1055 -11 367 -3 639 -10 645 -15 5&#xA;-5 8 -131 6 -319 -2 -233 0 -314 9 -325 17 -20 298 -22 305 -2 2 6 6 185 10&#xA;397 3 212 8 432 11 489 4 76 2 106 -7 112 -7 4 -226 8 -487 9 -262 0 -478 3&#xA;-482 5 -4 3 -315 6 -691 7 -376 1 -916 5 -1199 8 -283 4 -868 10 -1300 14&#xA;-432 3 -893 8 -1025 11 -228 5 -708 9 -2392 24 -408 3 -743 8 -746 11 -8 8&#xA;-47 1731 -47 2056 0 121 -3 274 -6 340 l-7 119 -86 0 c-47 0 -120 -1 -161 -3z&#xA;m-10 -447 c10 -12 11 -160 1 -753 -6 -405 -11 -865 -11 -1021 1 -156 0 -285&#xA;-2 -287 -8 -7 -111 -7 -845 1 -539 5 -765 11 -772 19 -16 20 -13 23 214 323&#xA;49 65 128 166 175 225 80 102 114 145 270 347 36 47 83 108 105 136 22 28 73&#xA;94 113 146 40 52 92 119 117 149 24 30 59 75 77 100 17 25 68 90 112 146 45&#xA;55 90 113 101 128 11 16 43 57 70 91 28 34 64 80 80 101 38 49 104 123 130&#xA;146 25 22 49 23 65 3z"></path>
<path d="M6865 7220 c-22 -5 -71 -13 -108 -19 -37 -6 -86 -20 -107 -31 -22&#xA;-11 -50 -20 -62 -20 -13 0 -38 -9 -56 -20 -18 -11 -37 -20 -43 -20 -21 0 -149&#xA;-93 -209 -152 -58 -57 -160 -198 -160 -220 0 -5 -8 -17 -17 -28 -25 -26 -56&#xA;-107 -49 -125 4 -12 29 -15 128 -15 68 0 128 4 134 8 6 4 23 27 38 51 40 63&#xA;147 165 217 206 33 19 63 35 66 35 3 0 19 6 36 14 59 27 156 46 294 57 233 18&#xA;406 -8 551 -84 55 -29 157 -118 206 -180 39 -50 136 -234 136 -259 0 -8 5 -19&#xA;11 -25 6 -6 16 -38 23 -72 11 -54 11 -61 -3 -66 -9 -2 -203 -7 -431 -11 -228&#xA;-3 -440 -8 -470 -9 -30 -2 -105 -4 -167 -4 -149 -1 -144 5 -141 -171 2 -76 6&#xA;-142 10 -146 7 -6 901 10 1136 20 71 4 84 2 92 -14 19 -35 -22 -200 -81 -326&#xA;-14 -30 -57 -82 -109 -134 -68 -68 -102 -93 -170 -127 -89 -43 -181 -73 -286&#xA;-92 -74 -14 -328 -15 -386 -1 -150 34 -234 55 -238 60 -3 3 -21 12 -40 20 -93&#xA;36 -280 197 -280 240 0 42 -25 50 -150 50 -123 0 -150 -4 -150 -24 0 -34 126&#xA;-241 187 -306 131 -141 364 -279 548 -326 17 -4 35 -9 40 -11 69 -24 189 -37&#xA;345 -36 171 0 188 3 349 43 57 14 189 78 271 131 128 84 310 301 352 420 6 19&#xA;18 40 25 47 7 7 13 22 13 33 0 11 5 29 11 40 17 33 46 158 60 257 35 263 -40&#xA;588 -190 822 -137 215 -357 389 -586 465 -159 53 -236 65 -395 64 -85 -1 -173&#xA;-5 -195 -9z"></path>
<path d="M4115 6722 l-30 -7 2 -300 c2 -408 21 -1397 27 -1403 5 -5 55 -5 226&#xA;-3 l95 1 50 70 c28 39 66 93 85 121 19 28 63 87 98 131 34 45 62 85 62 89 0 4&#xA;15 25 33 48 17 22 59 79 92 126 87 123 132 187 150 210 85 114 167 228 239&#xA;335 43 63 53 73 59 55 3 -7 3 -283 0 -613 -4 -538 -3 -600 11 -605 8 -3 53 -2&#xA;98 3 46 6 111 10 145 10 54 0 62 3 68 21 11 34 -6 1681 -17 1702 -9 17 -22 19&#xA;-148 15 l-138 -3 -23 -29 c-47 -60 -172 -235 -247 -346 -42 -63 -79 -117 -82&#xA;-120 -3 -3 -17 -23 -32 -45 -15 -22 -46 -67 -70 -101 -24 -34 -74 -106 -112&#xA;-160 -38 -54 -112 -158 -163 -230 -51 -73 -93 -135 -93 -138 0 -3 -12 -20 -27&#xA;-36 -23 -26 -28 -28 -36 -15 -8 16 -36 823 -37 1072 0 88 -4 134 -11 139 -16&#xA;10 -237 15 -274 6z"></path>
<path d="M8466 6723 c-18 -5 -18 -16 -12 -246 3 -133 11 -489 17 -792 6 -302&#xA;14 -581 17 -620 l7 -70 148 -3 148 -3 -7 386 c-5 288 -4 385 4 385 7 0 12 -3&#xA;12 -7 0 -7 36 -51 93 -113 13 -14 75 -88 137 -165 63 -77 132 -161 155 -187&#xA;22 -25 50 -59 62 -75 25 -32 126 -154 163 -195 l24 -28 177 0 c98 0 180 4 183&#xA;8 3 5 -11 28 -30 53 -99 126 -210 270 -322 419 -69 91 -148 194 -177 230 -29&#xA;36 -60 79 -69 96 l-18 30 48 68 c27 38 61 85 76 105 15 20 31 43 35 51 6 12&#xA;88 124 292 395 117 156 131 175 131 181 0 3 14 23 31 44 17 21 28 43 24 49 -4&#xA;8 -57 11 -158 10 l-151 -2 -34 -36 c-19 -20 -66 -74 -105 -121 -39 -47 -93&#xA;-110 -121 -140 -72 -78 -146 -163 -337 -388 -66 -78 -116 -129 -121 -124 -5 5&#xA;-12 183 -16 395 -5 296 -10 389 -20 399 -13 13 -246 23 -286 11z"></path>
<path d="M10656 6723 c-4 -4 -19 -9 -34 -11 -68 -9 -177 -56 -298 -128 -94&#xA;-55 -244 -213 -294 -308 -11 -23 -24 -48 -29 -56 -4 -8 -14 -26 -20 -39 -7&#xA;-13 -25 -63 -40 -110 -24 -78 -26 -100 -25 -246 0 -145 2 -167 26 -240 33 -98&#xA;63 -162 116 -240 83 -123 159 -199 285 -280 91 -59 162 -88 292 -115 308 -67&#xA;631 57 849 323 53 64 136 207 136 232 0 21 -7 22 -107 31 -60 6 -116 8 -126 6&#xA;-9 -2 -25 -20 -34 -40 -28 -58 -150 -173 -228 -214 -106 -55 -177 -70 -319&#xA;-66 -113 3 -128 6 -218 42 -54 21 -98 42 -98 47 0 5 -5 9 -11 9 -34 0 -175&#xA;130 -240 220 -66 92 -96 240 -80 397 7 66 17 99 54 175 83 170 227 288 425&#xA;350 58 18 85 20 197 16 72 -3 143 -11 160 -18 194 -82 301 -167 389 -307 14&#xA;-23 34 -46 43 -51 10 -5 63 -7 118 -3 129 8 128 4 51 145 -14 27 -37 64 -51&#xA;82 -14 18 -25 35 -25 38 0 9 -49 64 -105 117 -125 120 -292 205 -463 239 -60&#xA;11 -285 14 -296 3z"></path>
<path d="M11001 4202 c-17 -6 -13 -47 7 -63 48 -39 84 -52 133 -46 63 8 106&#xA;33 119 71 17 50 -28 63 -74 21 -15 -14 -35 -25 -44 -25 -35 0 -62 13 -67 31&#xA;-6 18 -38 23 -74 11z"></path>
<path d="M3253 4026 c-91 -29 -132 -88 -140 -203 -5 -65 -3 -78 25 -136 24&#xA;-52 39 -70 74 -90 37 -22 53 -25 120 -22 94 3 145 27 140 66 -6 38 -17 44 -60&#xA;31 -22 -7 -61 -12 -86 -12 -39 0 -53 5 -77 29 -32 32 -39 75 -13 85 9 3 71 6&#xA;139 6 l122 0 2 56 c1 69 -15 127 -43 153 -19 18 -122 52 -151 50 -5 0 -29 -6&#xA;-52 -13z m131 -105 c11 -12 16 -31 14 -51 l-3 -33 -77 1 c-43 0 -82 3 -87 6&#xA;-11 7 2 60 20 82 18 22 112 19 133 -5z"></path>
<path d="M4212 4025 c-84 -26 -133 -95 -140 -197 -7 -99 28 -183 94 -227 41&#xA;-27 50 -29 124 -26 97 4 147 27 142 66 -6 38 -17 44 -60 31 -22 -7 -61 -12&#xA;-86 -12 -39 0 -53 5 -77 29 -32 32 -39 75 -13 85 9 3 71 6 139 6 l122 0 2 56&#xA;c1 69 -15 127 -43 153 -19 18 -122 52 -151 50 -5 0 -29 -6 -53 -14z m132 -104&#xA;c11 -12 16 -31 14 -51 l-3 -33 -77 1 c-43 0 -82 3 -87 6 -11 7 2 60 20 82 18&#xA;22 112 19 133 -5z"></path>
<path d="M4753 4031 c-24 -4 -54 -18 -69 -32 l-25 -24 -17 22 c-10 13 -31 23&#xA;-52 25 l-35 3 -3 -312 -2 -313 43 0 c24 0 48 5 55 12 7 7 12 42 12 85 l0 73&#xA;74 0 c71 0 75 1 130 43 47 36 58 50 72 95 24 82 11 234 -25 276 -17 19 -88 56&#xA;-106 55 -5 -1 -29 -5 -52 -8z m58 -107 c36 -33 36 -191 0 -235 -23 -28 -103&#xA;-42 -131 -22 -18 13 -20 26 -20 117 0 107 4 119 50 150 29 19 74 15 101 -10z"></path>
<path d="M5686 4029 c-61 -10 -92 -32 -131 -94 -23 -38 -30 -62 -33 -115 -4&#xA;-66 11 -140 28 -140 4 0 13 -12 19 -27 19 -46 76 -77 152 -81 138 -8 219 78&#xA;219 232 -1 164 -98 251 -254 225z m104 -108 c46 -33 50 -176 7 -234 -7 -10&#xA;-31 -21 -53 -24 -33 -4 -45 -1 -72 22 -32 26 -32 28 -32 117 0 86 1 91 30 120&#xA;26 25 36 29 63 24 18 -3 43 -14 57 -25z"></path>
<path d="M6859 4030 c-68 -12 -133 -73 -148 -140 -53 -231 95 -377 304 -299&#xA;59 22 61 25 43 64 -11 24 -15 26 -52 18 -23 -4 -66 -7 -96 -6 -47 1 -58 5 -77&#xA;30 -28 34 -30 72 -5 75 9 0 22 2 27 3 6 2 61 3 123 4 l112 1 0 58 c0 86 -26&#xA;149 -73 174 -28 15 -116 25 -158 18z m88 -90 c34 -12 68 -73 49 -89 -19 -15&#xA;-69 -21 -126 -13 -51 7 -55 9 -52 32 3 32 38 68 71 73 14 2 26 5 27 6 1 0 14&#xA;-4 31 -9z"></path>
<path d="M9243 4029 c-125 -36 -178 -156 -138 -309 20 -76 25 -84 84 -122 56&#xA;-35 134 -38 216 -7 58 22 67 38 41 74 -12 16 -18 17 -59 7 -80 -21 -125 -16&#xA;-158 17 -16 17 -29 40 -29 54 0 31 26 37 166 37 116 0 114 -2 113 86 -1 66&#xA;-32 123 -79 146 -46 21 -117 29 -157 17z m122 -109 c21 -17 19 -67 -3 -79 -20&#xA;-11 -150 -2 -158 10 -9 15 26 76 49 86 25 11 90 1 112 -17z"></path>
<path d="M9700 4031 c-44 -9 -95 -46 -120 -86 -27 -45 -35 -188 -12 -246 24&#xA;-62 32 -72 77 -102 32 -22 51 -27 98 -27 32 0 73 7 92 14 33 14 38 22 38 61 0&#xA;34 -3 35 -71 29 -62 -6 -70 -4 -95 17 -22 19 -29 35 -34 81 -13 126 16 164&#xA;124 161 60 -2 63 -1 63 22 0 13 3 30 6 38 3 9 -2 20 -13 26 -27 14 -112 21&#xA;-153 12z"></path>
<path d="M1527 4023 c-3 -4 -6 -106 -6 -225 l-2 -218 28 0 c32 0 95 63 170&#xA;168 26 37 51 70 57 74 20 13 26 -17 26 -130 l0 -113 53 3 52 3 0 215 0 215&#xA;-28 3 c-32 4 -75 -36 -150 -141 -63 -88 -89 -119 -96 -112 -3 4 -6 60 -7 126&#xA;0 65 -3 122 -7 125 -10 10 -85 16 -90 7z"></path>
<path d="M2027 4023 c-3 -5 -5 -106 -6 -226 l-2 -218 53 3 53 3 1 85 2 85 78&#xA;0 79 0 3 -87 3 -88 55 0 54 0 -2 223 -3 222 -53 1 -54 2 3 -79 c2 -43 1 -81&#xA;-3 -84 -10 -11 -149 -11 -157 -1 -5 6 -7 38 -5 71 2 33 0 65 -4 71 -8 13 -89&#xA;27 -95 17z"></path>
<path d="M2492 4021 c-10 -6 -4 -26 29 -87 23 -43 45 -81 48 -84 33 -28 32&#xA;-38 -12 -107 -42 -65 -87 -146 -87 -158 0 -3 24 -5 54 -5 l53 0 45 87 c72 139&#xA;98 138 98 -4 l0 -83 50 0 50 0 0 90 c0 75 3 92 16 97 21 8 44 -21 91 -114 l37&#xA;-73 53 0 c42 0 53 3 53 16 0 22 -91 175 -107 181 -25 10 -8 80 27 113 3 3 20&#xA;33 38 68 21 41 28 62 20 63 -7 0 -26 2 -43 4 -37 5 -65 -2 -66 -18 0 -7 -10&#xA;-31 -22 -53 -12 -23 -30 -58 -41 -78 -12 -23 -25 -36 -35 -34 -13 3 -17 20&#xA;-19 90 -3 95 -7 101 -67 94 l-30 -3 -3 -79 c-2 -43 -8 -84 -14 -91 -19 -23&#xA;-49 6 -84 83 -19 40 -43 78 -54 84 -23 12 -60 13 -78 1z"></path>
<path d="M3605 4018 c-2 -7 -3 -107 -2 -223 l2 -210 53 -3 54 -3 -3 88 -3 88&#xA;78 5 c43 3 80 3 82 1 2 -2 4 -44 4 -93 l0 -88 56 0 55 0 -3 223 -3 222 -30 -1&#xA;c-81 -4 -74 4 -77 -86 l-3 -82 -73 1 c-40 0 -75 3 -79 7 -4 4 -8 38 -8 76 0&#xA;38 -4 72 -8 76 -14 14 -87 15 -92 2z"></path>
<path d="M5078 4022 l-28 -3 0 -220 0 -219 56 0 56 0 -3 88 -3 87 79 0 80 0 3&#xA;-88 3 -88 52 3 52 3 0 220 -1 220 -49 0 -50 -1 -3 -82 c-2 -45 -6 -82 -10 -83&#xA;-60 -5 -145 -2 -150 5 -3 6 -6 42 -6 80 -1 66 -2 70 -26 75 -14 4 -37 5 -52 3z"></path>
<path d="M6311 4021 c-7 -5 -11 -23 -9 -47 l3 -39 60 -1 60 -1 3 -177 2 -176&#xA;54 0 c52 0 55 1 61 30 4 17 6 50 5 73 -2 23 -2 88 -1 145 l1 102 60 0 c56 0&#xA;60 2 66 26 4 14 2 36 -4 49 -11 23 -12 23 -179 23 -93 1 -175 -3 -182 -7z"></path>
<path d="M7178 4022 c-14 -6 -9 -20 38 -97 30 -51 54 -102 54 -117 0 -17 -24&#xA;-65 -60 -121 -33 -52 -60 -97 -60 -100 0 -4 25 -7 55 -7 l54 0 48 80 c26 43&#xA;53 79 58 80 6 0 17 -16 24 -35 7 -19 17 -35 22 -35 5 0 9 -5 9 -12 0 -6 11&#xA;-26 26 -45 24 -31 29 -33 86 -33 l61 0 -21 23 c-12 13 -22 27 -22 30 0 14 -83&#xA;147 -92 147 -4 0 -8 11 -8 24 0 21 21 58 103 180 23 34 14 43 -46 42 -36 -1&#xA;-44 -6 -69 -41 -15 -22 -34 -55 -43 -72 -15 -31 -35 -44 -35 -24 0 5 -6 16&#xA;-12 23 -7 7 -22 31 -33 52 -11 22 -26 45 -33 53 -14 14 -75 17 -104 5z"></path>
<path d="M7673 4024 c-8 -4 -12 -66 -13 -225 l-1 -220 53 3 53 3 0 83 c0 96 0&#xA;95 100 90 l60 -3 3 -87 3 -88 54 0 55 0 0 208 c0 114 -4 212 -8 218 -7 13 -30&#xA;17 -74 15 -27 -1 -27 -2 -30 -78 l-3 -78 -77 -3 c-43 -2 -78 1 -79 5 0 4 -1&#xA;42 -2 83 l-2 75 -40 2 c-22 1 -45 0 -52 -3z"></path>
<path d="M8178 4023 l-28 -4 0 -220 0 -219 28 0 c35 1 55 18 124 110 31 41 69&#xA;90 85 109 l28 34 6 -24 c4 -13 7 -70 8 -126 l1 -103 55 0 56 0 -3 223 -3 222&#xA;-30 -3 c-38 -5 -54 -19 -118 -107 -28 -38 -57 -76 -64 -83 -7 -7 -20 -26 -30&#xA;-42 -33 -56 -35 -47 -35 135 0 108 -1 110 -80 98z"></path>
<path d="M8635 4022 c-9 -9 -5 -165 5 -203 6 -19 21 -46 35 -59 33 -31 110&#xA;-38 165 -16 22 9 43 16 45 16 3 0 5 -40 5 -90 l0 -90 55 0 55 0 0 206 c0 113&#xA;-4 213 -10 223 -5 11 -19 17 -32 16 -13 -1 -33 -3 -45 -4 -22 -1 -23 -5 -23&#xA;-80 0 -98 -3 -107 -45 -121 -27 -9 -40 -8 -64 5 -17 8 -31 19 -32 23 0 4 -2&#xA;21 -4 37 -2 17 -6 51 -8 76 -2 25 -7 51 -11 57 -6 11 -80 14 -91 4z"></path>
<path d="M9970 3804 l0 -224 55 0 55 0 0 79 c0 87 5 111 25 111 15 0 60 -63&#xA;95 -134 l26 -51 62 -3 63 -3 -14 33 c-8 18 -42 73 -75 121 -34 48 -62 92 -62&#xA;96 0 5 8 15 17 22 24 20 113 161 107 171 -3 4 -23 8 -45 8 -42 0 -73 -22 -89&#xA;-65 -15 -39 -82 -126 -94 -122 -6 2 -13 40 -16 93 l-5 89 -52 1 -53 2 0 -224z"></path>
<path d="M10425 4021 c-3 -2 -5 -103 -5 -224 l0 -219 32 6 c40 8 56 22 136&#xA;126 71 93 90 112 103 104 5 -3 9 -57 9 -120 l0 -115 53 3 52 3 3 214 c1 118&#xA;-1 218 -6 223 -4 4 -23 3 -42 -2 -28 -9 -51 -32 -115 -117 -44 -59 -84 -116&#xA;-88 -127 -16 -40 -26 2 -29 123 l-3 123 -48 2 c-26 1 -50 0 -52 -3z"></path>
<path d="M10924 4021 c-2 -2 -4 -103 -4 -224 l0 -219 33 6 c35 6 70 41 163&#xA;163 33 42 64 77 69 77 6 1 12 -49 15 -119 l5 -120 47 -3 47 -3 6 43 c3 24 4&#xA;124 3 223 l-3 180 -29 -2 c-38 -3 -53 -18 -153 -151 -46 -63 -87 -112 -89&#xA;-109 -3 2 -6 62 -7 133 l-3 129 -47 0 c-27 0 -50 -1 -53 -4z"></path>
<path d="M6043 3884 c-19 -8 -17 -81 3 -88 9 -3 56 -6 105 -6 85 0 89 1 95 24&#xA;3 13 4 35 2 47 -3 23 -7 24 -98 26 -52 1 -101 -1 -107 -3z"></path>
<path d="M5900 3251 c-100 -19 -160 -104 -160 -224 0 -76 19 -133 59 -178 33&#xA;-37 42 -41 109 -51 61 -10 80 -9 126 5 62 20 77 34 70 65 -8 28 -31 34 -74 22&#xA;-96 -27 -180 9 -180 78 0 28 14 31 150 33 117 1 122 2 130 24 23 60 -17 169&#xA;-72 202 -39 23 -108 33 -158 24z m88 -87 c32 -9 55 -56 42 -88 -9 -25 -13 -26&#xA;-85 -26 -69 0 -76 2 -84 23 -13 33 19 80 61 88 18 4 35 7 38 8 3 0 15 -2 28&#xA;-5z"></path>
<path d="M5257 3244 c-4 -4 -7 -103 -7 -220 0 -184 2 -213 16 -218 9 -3 85 -6&#xA;170 -6 l154 0 10 -26 c6 -14 10 -36 10 -50 0 -21 5 -24 35 -24 31 0 35 3 36&#xA;28 1 15 3 57 5 95 3 65 3 67 -21 67 -13 0 -27 4 -30 10 -3 5 -7 85 -8 177 l-2&#xA;168 -55 0 -55 0 -2 -169 c-1 -92 -4 -170 -6 -172 -9 -10 -122 -13 -136 -5 -10&#xA;7 -14 47 -15 177 l-1 169 -45 3 c-25 2 -49 0 -53 -4z"></path>
<path d="M6225 3238 c-3 -8 -4 -108 -3 -223 l3 -210 50 0 50 0 0 85 0 85 80 0&#xA;80 0 3 -88 3 -88 47 2 c26 2 50 8 54 13 4 6 8 104 8 217 0 225 2 219 -58 219&#xA;-44 0 -51 -11 -54 -90 l-3 -74 -44 -9 c-24 -5 -59 -6 -77 -2 l-33 6 -3 82 -3&#xA;82 -48 3 c-32 2 -49 -1 -52 -10z"></path>
<path d="M6683 3243 c-8 -3 -13 -22 -13 -44 0 -42 -1 -41 70 -44 22 -1 45 -6&#xA;51 -12 7 -7 11 -72 11 -177 l-1 -167 54 2 c44 2 56 6 61 22 3 11 5 87 3 171&#xA;l-4 151 57 3 c64 3 79 17 74 68 l-3 29 -174 1 c-96 1 -180 0 -186 -3z"></path>
<path d="M7113 3243 c-10 -4 -13 -76 -13 -314 l0 -310 53 3 52 3 0 83 c0 92&#xA;-5 87 86 82 132 -6 213 97 208 263 -4 140 -51 197 -160 197 -51 0 -70 -5 -100&#xA;-26 -37 -26 -59 -25 -59 1 0 20 -37 31 -67 18z m221 -83 c41 -15 59 -63 53&#xA;-139 -9 -117 -53 -159 -140 -134 l-32 9 -5 103 -5 103 31 34 c33 35 55 41 98&#xA;24z"></path>
</g>
</svg>